<svg width="50" height="50" viewBox="0 0 50 50" fill="none" xmlns="http://www.w3.org/2000/svg">
<circle cx="25" cy="25" r="25" fill="white"/>
<path fill-rule="evenodd" clip-rule="evenodd" d="M30.3161 18.3066C30.3161 17.4737 31.0011 16.7895 31.8351 16.7895C32.669 16.7895 33.354 17.4737 33.354 18.3066C33.354 19.1396 32.669 19.8238 31.8351 19.8238C31.0011 19.8238 30.3161 19.1396 30.3161 18.3066ZM18.5819 25.1785C18.5819 21.6384 21.4708 18.7529 25.0149 18.7529C28.559 18.7529 31.4479 21.6384 31.4479 25.1785C31.4479 28.7185 28.559 31.6041 25.0149 31.6041C21.4708 31.6041 18.5819 28.7185 18.5819 25.1785ZM20.9049 25.1785C20.9049 27.4394 22.7514 29.2838 25.0149 29.2838C27.3081 29.2838 29.1249 27.4394 29.1249 25.1785C29.1249 22.9176 27.2784 21.0732 25.0149 21.0732C22.7514 21.0732 20.9049 22.9176 20.9049 25.1785ZM30.1672 12C34.4857 12 38 15.5103 38 19.8238V30.1762C38 34.4897 34.4857 38 30.1672 38H19.8328C15.5143 38 12 34.4897 12 30.1762V19.8238C12 15.5103 15.5143 12 19.8328 12H30.1672ZM30.1375 35.5606C33.1157 35.5606 35.5281 33.151 35.5281 30.1762V19.8238C35.5281 16.849 33.1157 14.4394 30.1375 14.4394H19.803C16.8247 14.4394 14.4124 16.849 14.4124 19.8238V30.1762C14.4124 33.151 16.8247 35.5606 19.803 35.5606H30.1375Z" fill="#EC1C2D"/>
</svg>
