<svg width="51" height="50" viewBox="0 0 51 50" fill="none" xmlns="http://www.w3.org/2000/svg">
<path d="M25.8418 50C12.0204 50 0.841797 38.8214 0.841797 25C0.841797 11.1786 12.0204 0 25.8418 0C39.6632 0 50.8418 11.1786 50.8418 25C50.8418 38.7857 39.6275 50 25.8418 50Z" fill="white"/>
<path fill-rule="evenodd" clip-rule="evenodd" d="M36.4286 16.5742C37.6093 16.8903 38.5374 17.8182 38.8534 18.999C39.4246 21.1371 39.4269 25.6006 39.4269 25.6006C39.4269 25.6006 39.4269 30.0641 38.8534 32.2022C38.5374 33.383 37.6093 34.3109 36.4286 34.6269C34.2906 35.2004 25.7134 35.2004 25.7134 35.2004C25.7134 35.2004 17.1363 35.2004 14.9983 34.6269C13.8175 34.3109 12.8895 33.383 12.5735 32.2022C12 30.0641 12 25.6006 12 25.6006C12 25.6006 12 21.1371 12.5735 18.999C12.8895 17.8182 13.8175 16.8903 14.9983 16.5742C17.1363 16.0007 25.7134 16.0007 25.7134 16.0007C25.7134 16.0007 34.2906 16.0007 36.4286 16.5742ZM30.0935 25.6009L22.9681 29.7144V21.4873L30.0935 25.6009Z" fill="#EC1C2D"/>
</svg>
