<svg width="35" height="55" viewBox="0 0 35 55" fill="none" xmlns="http://www.w3.org/2000/svg">
<path d="M34.3382 27.5251C34.3382 30.9581 34.3382 34.3885 34.3382 37.8215C34.3399 41.986 32.8236 46.0086 30.0726 49.1375C27.3216 52.2664 23.5242 54.2875 19.3902 54.823C9.95679 56.083 1.21269 49.2936 0.13531 39.8644C0.0506597 39.1175 0.00804231 38.3665 0.00765907 37.6149C0.00255302 30.9088 0 24.2086 0 17.5144C0 8.79686 5.76473 1.88248 14.3582 0.265467C23.2938 -1.40511 32.4847 5.00428 34.0165 13.9973C34.2037 15.1314 34.3018 16.2784 34.3101 17.4277C34.3611 20.7995 34.3382 24.1636 34.3382 27.5251ZM2.29772 27.4818H2.39984C2.39984 31.4044 2.17262 35.3449 2.4458 39.2497C3.06363 48.0209 11.7439 54.2594 20.3374 52.3185C23.6638 51.5916 26.6403 49.7474 28.7705 47.0935C30.9006 44.4397 32.0557 41.1364 32.043 37.7347C32.0651 30.9181 32.0651 24.1007 32.043 17.2824C32.0319 16.4136 31.9517 15.5471 31.803 14.691C30.4576 6.45296 22.2573 0.892887 14.108 2.68078C10.7653 3.38902 7.76772 5.22341 5.61759 7.8766C3.46746 10.5298 2.29538 13.8406 2.29772 17.2543C2.2773 20.6694 2.29772 24.0718 2.29772 27.4818Z" fill="white"/>
<path d="M19.5014 15.7011C19.5014 16.6167 19.5167 17.5323 19.5014 18.4505C19.4733 19.8354 18.4801 20.8199 17.1347 20.8046C16.828 20.8047 16.5243 20.7434 16.2416 20.6244C15.959 20.5054 15.703 20.3311 15.4889 20.1117C15.2747 19.8923 15.1067 19.6322 14.9947 19.3469C14.8828 19.0616 14.8291 18.7568 14.837 18.4505C14.82 16.5937 14.82 14.737 14.837 12.8802C14.8497 11.4851 15.8403 10.4879 17.1679 10.4879C18.4955 10.4879 19.4656 11.4876 19.5014 12.8802C19.5141 13.8188 19.5039 14.7599 19.5014 15.7011Z" fill="white"/>
</svg>
