<svg width="26" height="12" viewBox="0 0 26 12" fill="none" xmlns="http://www.w3.org/2000/svg">
<path d="M25.689 1.74169C25.4822 2.0605 25.3494 2.43542 25.0839 2.65222C21.411 5.65329 17.7261 8.64077 14.0293 11.6146C13.4013 12.1247 12.9341 12.1247 12.3111 11.6146C8.61777 8.63567 4.9295 5.65074 1.24634 2.65987C1.11844 2.56585 1.01068 2.44721 0.929398 2.31094C0.848118 2.17467 0.794967 2.02352 0.773078 1.8664C0.751188 1.70929 0.761003 1.54938 0.801943 1.39612C0.842884 1.24285 0.914122 1.09932 1.01146 0.973992C1.4659 0.417984 2.13479 0.400128 2.81645 0.951034C5.10226 2.79589 7.38466 4.6433 9.66366 6.49326C10.6849 7.31962 11.7061 8.13832 12.7273 8.98508C13.0541 9.26054 13.2736 9.27329 13.6183 8.98508C16.893 6.31047 20.1762 3.6469 23.4679 0.994392C24.1648 0.430733 24.7444 0.374626 25.2192 0.874523C25.4071 1.14552 25.5647 1.43632 25.689 1.74169Z" fill="white"/>
</svg>
