<svg width="50" height="50" viewBox="0 0 50 50" fill="none" xmlns="http://www.w3.org/2000/svg">
<path d="M25 50C11.1946 50 0 38.7697 0 25C0 11.1946 11.1946 0 25 0C38.7697 0 50 11.1946 50 25C50 38.7697 38.7697 50 25 50Z" fill="white"/>
<path d="M26 26.8007H28.8571L30 22.0007H26V19.6007C26 18.3647 26 17.2007 28.2857 17.2007H30V13.1687C29.6274 13.1171 28.2206 13.0007 26.7349 13.0007C23.632 13.0007 21.4286 14.9891 21.4286 18.6407V22.0007H18V26.8007H21.4286V37.0007H26V26.8007Z" fill="#EC1C2D"/>
</svg>
